<svg width="100" height="34" xmlns="http://www.w3.org/2000/svg">
  <g stroke="null" id="svg_75">
   <ellipse stroke="null" ry="5.947257" rx="6.006882" id="svg_35" cy="25.481988" cx="85.21165" stroke-width="null" fill="#BBBBBB"/>
   <ellipse stroke="null" ry="5.947257" rx="6.006882" id="svg_74" cy="25.481988" cx="21.942745" stroke-width="null" fill="#BBBBBB"/>
   <path stroke="null" fill="#4C261D" id="svg_5" d="m27.835522,0.138397c-0.827584,0.234222 -0.788547,0.202992 -0.843199,0.866621c-0.03123,0.327911 -0.070267,0.624592 -0.093689,0.663629c-0.046844,0.078074 -1.92062,0.819777 -4.606365,1.826931c-3.497714,1.303836 -8.213383,3.24007 -9.158078,3.770973c-0.608977,0.335718 -1.506828,0.710473 -1.95185,0.811969c-0.17957,0.039037 -0.765125,0.109304 -1.288221,0.148341c-0.523096,0.046844 -1.303836,0.148341 -1.733242,0.234222c-1.202339,0.242029 -2.654515,0.382563 -4.395565,0.445022l-1.584902,0.046844l-0.335718,0.515288c-0.460636,0.710473 -0.468444,0.741703 -0.202992,1.014962c0.288874,0.288874 0.296681,0.507481 0.023422,1.17111c-0.195185,0.484059 -0.2108,0.608977 -0.242029,1.998694l-0.03123,1.483406l-0.296681,0.249837c-0.710473,0.608977 -1.038384,1.631746 -1.046191,3.263492c0,1.514635 0.085881,3.09173 0.202992,3.763166c0.101496,0.554325 0.109304,0.577747 0.562133,0.952503c0.53871,0.452829 1.014962,1.007154 1.233569,1.436561c0.499673,0.983732 4.169151,1.647361 10.805439,1.95185l0.718281,0.03123l-0.046844,-0.92908c-0.046844,-1.108651 0.062459,-1.998694 0.382563,-2.990234c0.874429,-2.748204 3.076115,-4.856202 5.902393,-5.636942c0.702666,-0.202992 0.874429,-0.218607 2.170457,-0.218607c1.288221,0 1.467791,0.015615 2.170457,0.2108c1.569287,0.437214 2.818471,1.186725 3.934929,2.357834c1.093036,1.132073 1.733242,2.287568 2.139227,3.84124c0.163955,0.616784 0.187378,0.851006 0.17957,2.178264c-0.007807,0.99154 -0.046844,1.670783 -0.124918,2.053346l-0.117111,0.56994l23.469039,-0.054652c12.905629,-0.03123 23.476847,-0.062459 23.492461,-0.070267c0.007807,-0.007807 -0.062459,-0.288874 -0.156148,-0.632399c-0.148341,-0.523096 -0.171763,-0.819777 -0.171763,-2.022116c-0.007807,-1.296028 0.007807,-1.459983 0.2108,-2.178264c0.913466,-3.286915 3.646055,-5.746245 6.909547,-6.222496c0.92908,-0.132726 2.537404,-0.054652 3.372796,0.163955c1.865968,0.491866 3.536751,1.600517 4.692246,3.115152c0.546518,0.718281 1.202339,2.084575 1.444369,3.013656c0.187378,0.687051 0.2108,0.92908 0.2108,2.029924c0.007807,0.905658 -0.03123,1.413139 -0.124918,1.826931c-0.078074,0.320103 -0.124918,0.585555 -0.117111,0.593362c0.015615,0.007807 0.484059,-0.015615 1.038384,-0.046844c2.076768,-0.124918 3.575788,-0.351333 4.098884,-0.616784c0.374755,-0.187378 0.757318,-0.632399 0.99154,-1.13988l0.187378,-0.405985l-0.124918,-1.225762c-0.117111,-1.186725 -0.117111,-1.272606 0.03123,-2.217301c0.491866,-3.029271 0.39037,-5.309031 -0.273259,-6.261533c-1.046191,-1.506828 -4.106691,-2.623286 -11.156772,-4.05204c-5.754053,-1.163302 -10.321381,-1.631746 -15.872441,-1.639554c-1.780087,0 -1.764472,0 -2.709167,-0.663629c-1.459983,-1.022769 -8.158731,-4.739091 -11.484683,-6.36303c-2.990234,-1.459983 -6.15223,-2.193879 -11.234846,-2.592056c-1.623939,-0.132726 -8.634982,-0.124918 -10.930358,0c-0.944695,0.054652 -2.451523,0.148341 -3.357181,0.2108c-2.357834,0.171763 -2.232916,0.171763 -2.662323,-0.078074c-1.093036,-0.632399 -1.459983,-0.733895 -2.10019,-0.554325zm14.716946,2.599864c0.046844,0.288874 0.296681,1.858161 0.554325,3.4821c0.249837,1.631746 0.515288,3.294722 0.585555,3.700707c0.070267,0.405985 0.117111,0.74951 0.101496,0.757318c-0.085881,0.070267 -13.26477,-0.226415 -15.232234,-0.343526c-1.608324,-0.101496 -3.255685,-0.281066 -3.786588,-0.4216c-0.765125,-0.202992 -1.545865,-0.92908 -1.944042,-1.803509c-0.273259,-0.585555 -0.281066,-1.342873 -0.039037,-1.990887c0.132726,-0.351333 0.234222,-0.476251 0.530903,-0.671436c0.648014,-0.4216 1.053999,-0.624592 1.975272,-0.99154c2.662323,-1.061806 6.698748,-1.795702 11.398801,-2.084575c2.10019,-0.124918 2.107998,-0.124918 3.989581,-0.140533l1.772279,-0.015615l0.093689,0.523096zm4.918661,-0.366948c2.061153,0.140533 6.066348,0.858814 8.033813,1.452176c1.452176,0.437214 3.474292,1.467791 5.902393,3.021463c1.647361,1.046191 2.139227,1.413139 1.95185,1.444369c-0.585555,0.093689 -1.038384,0.39037 -1.264799,0.827584c-0.148341,0.273259 -0.163955,1.061806 -0.03123,1.397524l0.085881,0.2108l-7.08131,-0.015615l-7.073503,-0.023422l-0.460636,-1.249184c-0.858814,-2.357834 -2.326605,-6.854896 -2.326605,-7.151577c0,-0.046844 0.741703,-0.015615 2.264146,0.085881z"/>
   <path stroke="null" id="svg_6" d="m20.559027,17.400555c-1.74105,0.312296 -3.201033,1.100843 -4.434602,2.389064c-1.030577,1.077421 -1.662976,2.209494 -2.045538,3.646055c-0.171763,0.648014 -0.202992,0.92908 -0.202992,1.928427c-0.007807,1.31945 0.078074,1.842546 0.507481,2.982426c0.679244,1.795702 2.115805,3.404026 3.849047,4.301876c0.663629,0.343526 1.389717,0.608977 2.115805,0.765125c0.835392,0.17957 2.435908,0.17957 3.2713,-0.007807c3.0605,-0.655821 5.457371,-2.927774 6.261533,-5.94143c0.17957,-0.671436 0.202992,-0.936888 0.2108,-1.983079c0.007807,-1.233569 -0.039037,-1.553672 -0.35914,-2.576441c-0.765125,-2.420293 -2.771626,-4.426795 -5.215342,-5.223149c-1.17111,-0.39037 -2.763819,-0.499673 -3.958351,-0.281066zm2.732589,2.350027c1.944042,0.437214 3.567981,1.928427 4.239417,3.895892c0.195185,0.562133 0.218607,0.741703 0.218607,1.717628c0.007807,1.194532 -0.117111,1.780087 -0.577747,2.693552c-0.733895,1.452176 -2.209494,2.631093 -3.786588,3.013656c-0.74951,0.187378 -2.092383,0.187378 -2.810663,0c-2.498367,-0.655821 -4.247225,-2.771626 -4.387758,-5.316838c-0.156148,-2.802856 1.631746,-5.254379 4.356528,-5.97266c0.733895,-0.187378 1.975272,-0.202992 2.748204,-0.03123z"/>
   <path stroke="null" id="svg_7" d="m20.301382,20.742121c-0.281066,0.101496 -0.663629,0.281066 -0.851006,0.398177l-0.343526,0.218607l0.905658,0.897851c0.632399,0.640207 0.936888,0.890043 1.022769,0.858814c0.109304,-0.046844 0.124918,-0.226415 0.124918,-1.303836c0,-1.452176 0.046844,-1.389717 -0.858814,-1.069614z"/>
   <path stroke="null" id="svg_8" d="m22.79975,21.803927c0,1.085228 0.015615,1.264799 0.124918,1.311643c0.085881,0.03123 0.39037,-0.218607 1.014962,-0.843199l0.897851,-0.890043l-0.218607,-0.171763c-0.265452,-0.218607 -1.077421,-0.546518 -1.506828,-0.616784l-0.312296,-0.054652l0,1.264799z"/>
   <path stroke="null" id="svg_9" d="m17.81863,22.686163c-0.218607,0.281066 -0.718281,1.491213 -0.718281,1.756665c0,0.078074 0.265452,0.101496 1.288221,0.101496c1.178917,0 1.288221,-0.007807 1.288221,-0.140533c0,-0.117111 -1.608324,-1.811316 -1.725435,-1.811316c-0.03123,0 -0.085881,0.046844 -0.132726,0.093689z"/>
   <path stroke="null" id="svg_10" d="m25.157584,23.443481c-0.484059,0.460636 -0.874429,0.897851 -0.874429,0.968117c0,0.117111 0.132726,0.132726 1.288221,0.132726c1.022769,0 1.288221,-0.023422 1.288221,-0.101496c0,-0.312296 -0.53871,-1.600517 -0.741703,-1.772279c-0.054652,-0.046844 -0.374755,0.2108 -0.96031,0.772932z"/>
   <path stroke="null" id="svg_11" d="m21.714522,23.591821c-0.093689,0.171763 0.085881,0.484059 0.265452,0.484059c0.062459,0 0.163955,-0.078074 0.226415,-0.171763c0.156148,-0.218607 0.03123,-0.452829 -0.226415,-0.452829c-0.101496,0 -0.226415,0.062459 -0.265452,0.140533z"/>
   <path stroke="null" id="svg_12" d="m21.464685,24.926886c-0.249837,0.257644 -0.288874,0.523096 -0.109304,0.858814c0.226415,0.445022 0.811969,0.499673 1.178917,0.109304c0.413792,-0.445022 0.070267,-1.194532 -0.554325,-1.194532c-0.2108,0 -0.343526,0.062459 -0.515288,0.226415z"/>
   <path stroke="null" id="svg_13" d="m20.067161,25.207953c-0.202992,0.249837 0.101496,0.632399 0.374755,0.460636c0.187378,-0.124918 0.2108,-0.351333 0.046844,-0.476251c-0.17957,-0.132726 -0.304489,-0.124918 -0.4216,0.015615z"/>
   <path stroke="null" id="svg_14" d="m23.471186,25.21576c-0.156148,0.148341 -0.156148,0.296681 -0.015615,0.4216c0.17957,0.148341 0.476251,0.062459 0.499673,-0.140533c0.054652,-0.343526 -0.249837,-0.523096 -0.484059,-0.281066z"/>
   <path stroke="null" id="svg_15" d="m17.100349,26.379063c0,0.226415 0.320103,1.093036 0.562133,1.514635l0.242029,0.413792l0.913466,-0.913466c0.554325,-0.554325 0.905658,-0.96031 0.882236,-1.022769c-0.03123,-0.085881 -0.312296,-0.109304 -1.31945,-0.109304c-1.100843,0 -1.280413,0.015615 -1.280413,0.117111z"/>
   <path stroke="null" id="svg_16" d="m24.283156,26.402485c0,0.070267 0.398177,0.530903 0.890043,1.022769l0.890043,0.890043l0.242029,-0.4216c0.234222,-0.398177 0.554325,-1.288221 0.554325,-1.522443c0,-0.085881 -0.242029,-0.109304 -1.288221,-0.109304c-1.178917,0 -1.288221,0.007807 -1.288221,0.140533z"/>
   <path stroke="null" id="svg_17" d="m21.706714,26.95681c-0.054652,0.117111 -0.039037,0.187378 0.062459,0.320103c0.249837,0.312296 0.663629,0.03123 0.484059,-0.320103c-0.109304,-0.195185 -0.437214,-0.195185 -0.546518,0z"/>
   <path stroke="null" id="svg_18" d="m20.004701,28.549519c-0.476251,0.484059 -0.874429,0.897851 -0.874429,0.92908c0,0.140533 1.623939,0.843199 1.944042,0.843199c0.054652,0 0.085881,-0.4216 0.085881,-1.280413c0,-1.093036 -0.015615,-1.288221 -0.124918,-1.327258c-0.070267,-0.023422 -0.124918,-0.046844 -0.132726,-0.046844c-0.007807,0 -0.413792,0.398177 -0.897851,0.882236z"/>
   <path stroke="null" id="svg_19" d="m22.901246,27.721935c-0.117111,0.046844 -0.148341,2.599864 -0.03123,2.599864c0.35914,0 1.959657,-0.687051 1.959657,-0.843199c0,-0.070267 -1.74105,-1.811316 -1.795702,-1.803509c-0.023422,0 -0.085881,0.023422 -0.132726,0.046844z"/>
   <path stroke="null" id="svg_20" d="m83.541309,17.447399c-3.044885,0.655821 -5.433949,2.935582 -6.222496,5.925815c-0.242029,0.913466 -0.320103,2.27976 -0.187378,3.208841c0.257644,1.772279 1.17111,3.536751 2.482753,4.754706c2.084575,1.95185 5.020157,2.685745 7.752746,1.944042c0.913466,-0.249837 2.209494,-0.921273 2.966811,-1.53025c3.802203,-3.09173 4.044232,-8.806745 0.523096,-12.179541c-0.757318,-0.726088 -1.296028,-1.093036 -2.264146,-1.545865c-1.069614,-0.499673 -1.834739,-0.671436 -3.177611,-0.710473c-0.936888,-0.023422 -1.264799,0 -1.873776,0.132726zm3.474292,2.443716c1.858161,0.632399 3.193226,2.014309 3.794396,3.950544c0.234222,0.74951 0.257644,2.256338 0.039037,3.029271c-0.858814,3.122959 -4.005195,4.973313 -7.11254,4.184765c-1.163302,-0.296681 -2.443716,-1.147688 -3.138574,-2.084575c-1.374102,-1.858161 -1.584902,-4.161343 -0.554325,-6.222496c0.265452,-0.53871 0.468444,-0.804162 1.077421,-1.405332c0.60117,-0.608977 0.866621,-0.811969 1.413139,-1.085228c1.007154,-0.507481 1.616131,-0.632399 2.841893,-0.60117c0.851006,0.023422 1.116458,0.054652 1.639554,0.234222z"/>
   <path stroke="null" id="svg_21" d="m83.564731,20.718699c-0.4216,0.148341 -1.194532,0.554325 -1.194532,0.624592c0,0.023422 0.398177,0.445022 0.890043,0.92908c0.624592,0.624592 0.92908,0.874429 1.014962,0.843199c0.109304,-0.039037 0.124918,-0.226415 0.124918,-1.303836l0,-1.249184l-0.2108,0.007807c-0.124918,0 -0.405985,0.070267 -0.624592,0.148341z"/>
   <path stroke="null" id="svg_22" d="m86.039676,21.803927c0,1.085228 0.015615,1.264799 0.124918,1.311643c0.171763,0.062459 1.928427,-1.686398 1.826931,-1.811316c-0.132726,-0.156148 -1.272606,-0.655821 -1.616131,-0.710473l-0.335718,-0.054652l0,1.264799z"/>
   <path stroke="null" id="svg_23" d="m80.933638,22.873541c-0.226415,0.343526 -0.593362,1.288221 -0.593362,1.514635c0,0.148341 0.054652,0.156148 1.288221,0.156148c0.983732,0 1.288221,-0.023422 1.288221,-0.101496c0,-0.054652 -0.398177,-0.491866 -0.890043,-0.983732l-0.890043,-0.890043l-0.202992,0.304489z"/>
   <path stroke="null" id="svg_24" d="m88.327244,23.466903c-0.476251,0.484059 -0.851006,0.92908 -0.827584,0.975925c0.046844,0.117111 2.599864,0.148341 2.599864,0.03123c0,-0.351333 -0.687051,-1.881583 -0.843199,-1.881583c-0.03123,0 -0.445022,0.398177 -0.92908,0.874429z"/>
   <path stroke="null" id="svg_25" d="m84.962255,23.544977c-0.132726,0.132726 -0.117111,0.249837 0.054652,0.405985c0.124918,0.109304 0.17957,0.117111 0.320103,0.046844c0.242029,-0.132726 0.187378,-0.499673 -0.078074,-0.530903c-0.109304,-0.015615 -0.242029,0.023422 -0.296681,0.078074z"/>
   <path stroke="null" id="svg_26" d="m84.681189,24.942501c-0.530903,0.632399 0.132726,1.514635 0.858814,1.124265c0.694858,-0.374755 0.437214,-1.366295 -0.35914,-1.366295c-0.234222,0 -0.343526,0.046844 -0.499673,0.242029z"/>
   <path stroke="null" id="svg_27" d="m83.307087,25.200145c-0.148341,0.17957 -0.062459,0.476251 0.140533,0.499673c0.343526,0.054652 0.523096,-0.249837 0.281066,-0.484059c-0.148341,-0.156148 -0.296681,-0.156148 -0.4216,-0.015615z"/>
   <path stroke="null" id="svg_28" d="m86.711112,25.192338c-0.163955,0.124918 -0.140533,0.351333 0.054652,0.476251c0.288874,0.17957 0.60117,-0.273259 0.320103,-0.476251c-0.078074,-0.054652 -0.163955,-0.101496 -0.187378,-0.101496c-0.023422,0 -0.109304,0.046844 -0.187378,0.101496z"/>
   <path stroke="null" id="svg_29" d="m80.340275,26.4181c0,0.226415 0.335718,1.100843 0.577747,1.522443l0.218607,0.374755l0.905658,-0.905658c0.632399,-0.632399 0.882236,-0.936888 0.851006,-1.022769c-0.046844,-0.109304 -0.226415,-0.124918 -1.303836,-0.124918c-1.186725,0 -1.249184,0.007807 -1.249184,0.156148z"/>
   <path stroke="null" id="svg_30" d="m87.499659,26.35564c-0.023422,0.054652 0.366948,0.515288 0.866621,1.014962l0.905658,0.921273l0.2108,-0.335718c0.2108,-0.343526 0.616784,-1.381909 0.616784,-1.584902c0,-0.093689 -0.218607,-0.109304 -1.280413,-0.109304c-0.952503,0 -1.296028,0.023422 -1.31945,0.093689z"/>
   <path stroke="null" id="svg_31" d="m84.954448,26.95681c-0.109304,0.195185 -0.039037,0.374755 0.156148,0.437214c0.2108,0.070267 0.398177,-0.101496 0.366948,-0.343526c-0.03123,-0.265452 -0.398177,-0.335718 -0.523096,-0.093689z"/>
   <path stroke="null" id="svg_32" d="m83.244627,28.549519c-0.476251,0.484059 -0.874429,0.897851 -0.874429,0.92908c0,0.156148 1.569287,0.843199 1.928427,0.843199c0.078074,0 0.101496,-0.265452 0.101496,-1.280413c0,-1.093036 -0.015615,-1.288221 -0.124918,-1.327258c-0.070267,-0.023422 -0.124918,-0.046844 -0.132726,-0.046844c-0.007807,0 -0.413792,0.398177 -0.897851,0.882236z"/>
   <path stroke="null" id="svg_33" d="m86.141172,27.721935c-0.078074,0.023422 -0.101496,0.366948 -0.101496,1.31945c0,0.702666 0.03123,1.280413 0.062459,1.280413c0.281066,0 1.452176,-0.476251 1.865968,-0.765125c0.124918,-0.078074 -1.686398,-1.88939 -1.826931,-1.834739z"/>
  </g>
</svg>